<?xml version="1.0" encoding="UTF-8" standalone="no"?>
<!DOCTYPE svg PUBLIC "-//W3C//DTD SVG 1.1//EN" "http://www.w3.org/Graphics/SVG/1.1/DTD/svg11.dtd">
<!-- Created with Vectornator (http://vectornator.io/) -->
<svg height="179" stroke-miterlimit="10" style="fill-rule:nonzero;clip-rule:evenodd;stroke-linecap:round;stroke-linejoin:round;" version="1.1" viewBox="94 208 654 179" width="654" xml:space="preserve" xmlns="http://www.w3.org/2000/svg" xmlns:xlink="http://www.w3.org/1999/xlink">
<defs>
<linearGradient gradientTransform="matrix(584.808 0 0 584.808 128.591 299.979)" gradientUnits="userSpaceOnUse" id="LinearGradient" x1="0" x2="1" y1="0" y2="0">
<stop offset="0" stop-color="#239eab"/>
<stop offset="1" stop-color="#74deee"/>
</linearGradient>
</defs>
<g id="Layer-1">
<g opacity="1">
<path d="M615.903 218.091C595.782 218.091 576.584 232.196 574.441 253.59C569.366 252.475 564.167 251.856 558.932 251.856C545.762 251.856 532.739 255.391 521.764 262.696C512.809 255.83 501.6 252.231 490.19 252.231C484.025 252.231 478.363 253.325 473.144 255.093C469.504 253.605 465.548 252.781 461.373 252.781C461.373 252.781 444.857 252.781 444.857 252.781C438.035 252.781 431.774 255.027 426.644 258.736C417.258 254.114 406.806 251.856 396.263 251.856C390.131 251.856 384.016 252.602 378.13 254.139C375.028 240.184 362.628 229.741 347.749 229.741C347.749 229.741 331.18 229.741 331.18 229.741C327.708 229.741 324.435 230.459 321.318 231.504C318.195 230.456 314.905 229.741 311.429 229.741C311.429 229.741 294.86 229.741 294.86 229.741C280.044 229.741 267.715 240.079 264.532 253.908C259.026 252.559 253.332 251.856 247.618 251.856C234.773 251.856 222.058 255.267 211.378 262.378C202.742 255.897 192.049 252.441 181.13 252.26C177.361 239.275 165.522 229.741 151.332 229.741C151.332 229.741 134.816 229.741 134.816 229.741C117.581 229.741 103.639 243.692 103.639 260.904C103.639 260.904 103.639 345.171 103.639 345.171C103.639 362.406 117.604 376.334 134.816 376.334C134.816 376.334 151.332 376.334 151.332 376.334C157.437 376.334 163.096 374.534 167.901 371.506C172.706 374.532 178.346 376.334 184.443 376.334C184.443 376.334 200.907 376.334 200.907 376.334C207.46 376.334 213.52 374.288 218.536 370.841C227.535 375.165 237.536 377.259 247.618 377.259C258.011 377.259 267.882 374.74 276.621 370.35C281.761 374.078 288.024 376.334 294.86 376.334L311.429 376.334C314.91 376.334 318.193 375.62 321.318 374.571C324.434 375.614 327.713 376.334 331.18 376.334C331.18 376.334 347.749 376.334 347.749 376.334C354.557 376.334 360.811 374.103 365.935 370.408C375.308 375.012 385.741 377.259 396.263 377.259C406.81 377.259 417.277 375.008 426.671 370.379C431.802 374.086 438.043 376.334 444.857 376.334C444.857 376.334 461.373 376.334 461.373 376.334C467.478 376.334 473.137 374.535 477.942 371.506C482.748 374.532 488.388 376.334 494.485 376.334C494.485 376.334 510.948 376.334 510.948 376.334C517.657 376.334 523.839 374.179 528.922 370.581C538.211 375.085 548.53 377.259 558.932 377.259C569.479 377.259 579.946 375.008 589.34 370.379C594.471 374.086 600.712 376.334 607.526 376.334L624.095 376.334C630.094 376.334 635.625 374.552 640.373 371.622C647.69 375.256 655.798 377.259 664.126 377.259C669.742 377.259 675.241 376.255 680.43 374.513C683.635 375.625 687.028 376.334 690.61 376.334C690.61 376.334 707.179 376.334 707.179 376.334C724.414 376.334 738.356 362.383 738.356 345.171C738.356 345.171 738.356 260.904 738.356 260.904C738.356 243.669 724.391 229.741 707.179 229.741C707.179 229.741 690.61 229.741 690.61 229.741C676.489 229.741 664.708 239.175 660.865 252.029C659.59 252.108 658.335 252.295 657.074 252.463C654.391 231.972 635.85 218.091 615.903 218.091Z" fill="#239eab" fill-rule="nonzero" opacity="1" stroke="none"/>
<path d="M615.903 233.557C601.385 233.557 589.684 243.575 589.684 257.579C589.684 262.499 591.231 266.863 593.767 270.501C592.562 271.852 591.805 273.671 591.805 275.705L591.805 278.74C582.983 271.185 571.388 267.322 558.932 267.321C545.819 267.321 533.613 271.548 524.654 279.925C523.157 281.326 521.822 282.864 520.545 284.464C519.56 282.805 518.554 281.145 517.31 279.665C510.786 271.905 501.094 267.668 490.19 267.668C483.064 267.668 476.946 269.472 471.871 272.323C469.082 269.798 465.431 268.218 461.373 268.218L444.857 268.218C437.777 268.218 431.877 272.918 429.905 279.347C420.998 271.371 409.064 267.322 396.263 267.321C383.844 267.321 372.284 271.169 363.47 278.682C363.47 272.763 363.47 260.904 363.47 260.904C363.47 252.216 356.428 245.207 347.749 245.207C347.749 245.207 331.18 245.207 331.18 245.207C327.418 245.207 324.022 246.595 321.318 248.791C318.61 246.588 315.195 245.207 311.429 245.207L287.118 245.207C282.711 245.207 279.139 248.779 279.139 253.185L279.139 278.017C270.673 270.932 259.624 267.322 247.618 267.321C234.551 267.321 222.546 271.589 213.87 280.07C212.579 281.332 211.404 282.701 210.291 284.117C209.365 282.591 208.471 281.037 207.322 279.665C200.813 271.897 191.134 267.668 180.228 267.668C175.356 267.668 170.987 268.572 167.053 270.01L167.053 253.185C167.053 248.779 163.48 245.207 159.074 245.207L134.816 245.207C126.128 245.207 119.095 252.225 119.095 260.904C119.095 260.904 119.095 345.171 119.095 345.171C119.095 353.859 126.136 360.897 134.816 360.897C134.816 360.897 151.332 360.897 151.332 360.897C160.02 360.897 167.052 353.85 167.053 345.171L167.965 353.761C168.396 357.819 171.818 360.897 175.899 360.897L200.907 360.897C207.69 360.897 213.414 356.591 215.62 350.577C224.127 358.002 235.387 361.793 247.618 361.793C260.246 361.793 271.522 357.137 279.829 349.565C281.736 356.104 287.711 360.897 294.86 360.897C294.86 360.897 311.429 360.897 311.429 360.897C315.198 360.897 318.611 359.523 321.318 357.312C324.024 359.518 327.418 360.897 331.18 360.897C331.18 360.897 347.749 360.897 347.749 360.897C354.819 360.897 360.721 356.212 362.701 349.796C371.601 357.746 383.484 361.793 396.263 361.793C409.061 361.793 420.997 357.744 429.905 349.767C431.879 356.199 437.785 360.897 444.857 360.897C444.857 360.897 461.373 360.897 461.373 360.897C470.061 360.897 477.094 353.85 477.094 345.171L478.764 345.171C478.764 353.859 485.806 360.897 494.485 360.897C494.485 360.897 510.948 360.897 510.948 360.897C517.891 360.897 523.709 356.38 525.794 350.143C534.637 357.855 546.349 361.793 558.932 361.793C571.386 361.793 582.982 357.931 591.805 350.374L591.805 352.919C591.805 357.325 595.377 360.897 599.784 360.897L631.811 360.897C636.217 360.897 639.79 357.325 639.789 352.918L639.789 352.918C646.566 358.638 655.07 361.793 664.126 361.793C670.431 361.793 676.216 360.308 681.093 357.601C683.74 359.629 687.018 360.897 690.61 360.897C690.61 360.897 707.179 360.897 707.179 360.897C715.867 360.897 722.9 353.85 722.9 345.171C722.9 345.171 722.9 260.904 722.9 260.904C722.9 252.216 715.858 245.207 707.179 245.207L682.868 245.207C678.462 245.207 674.889 248.779 674.889 253.185L674.889 268.94C671.544 267.915 667.946 267.322 664.126 267.321C655.081 267.321 646.572 270.474 639.789 276.196L639.789 275.705C639.789 273.71 639.046 271.931 637.881 270.588C640.436 266.941 641.99 262.549 641.99 257.579C641.99 243.706 630.425 233.557 615.903 233.557Z" fill="#220e00" fill-rule="nonzero" opacity="1" stroke="none"/>
<path d="M601.285 247.644C601.285 247.644 593.308 262.211 603.633 262.211C608.458 262.211 623.585 263.047 629.6 262.248C636.295 261.36 633.646 252.277 630.313 247.644M134.82 254.683C131.38 254.683 128.591 257.473 128.591 260.913L128.591 345.174C128.591 348.615 131.38 351.404 134.82 351.404L151.329 351.404C154.769 351.404 157.558 348.615 157.558 345.174L157.558 312.316C157.558 305.258 161.517 300.983 167.921 300.983C174.195 300.983 178.223 305.258 178.224 312.316L178.224 345.174C178.224 348.615 181.013 351.404 184.453 351.404L200.901 351.404C204.342 351.404 207.131 348.615 207.131 345.174L207.131 308.68C207.131 289.599 197.213 277.167 180.223 277.167C169.115 277.167 161.741 282.519 157.558 288.923L157.558 260.913C157.558 257.473 154.769 254.683 151.329 254.683L134.82 254.683ZM294.87 254.683C291.429 254.683 288.64 257.473 288.64 260.913L288.64 345.174C288.64 348.615 291.429 351.404 294.87 351.404L311.439 351.404C314.879 351.404 317.668 348.615 317.668 345.174L317.668 260.913C317.668 257.473 314.879 254.683 311.439 254.683L294.87 254.683ZM331.17 254.683C327.73 254.683 324.941 257.473 324.941 260.913L324.941 345.174C324.941 348.615 327.73 351.404 331.17 351.404L347.739 351.404C351.18 351.404 353.969 348.615 353.969 345.174L353.969 260.913C353.969 257.473 351.18 254.683 347.739 254.683L331.17 254.683ZM690.6 254.683C687.159 254.683 684.37 257.473 684.37 260.913L684.37 287.772C680.841 281.107 673.931 276.803 664.129 276.803C647.139 276.803 633.647 290.772 633.646 314.558C633.646 338.344 647.139 352.313 664.129 352.313C673.931 352.313 680.841 348.009 684.37 341.344L684.37 345.174C684.37 348.615 687.159 351.404 690.6 351.404L707.169 351.404C710.609 351.404 713.399 348.615 713.399 345.174L713.398 260.913C713.398 257.473 710.609 254.683 707.169 254.683L690.6 254.683ZM247.613 276.803C225.526 276.803 209.979 291.033 209.979 314.558C209.979 338.083 225.526 352.313 247.613 352.313C266.171 352.313 280.534 340.543 283.671 324.86L252.946 324.86C251.9 327.082 249.948 329.224 246.158 329.224C242.237 329.224 238.733 327.098 238.341 319.649L284.883 319.649C285.144 317.819 285.246 315.721 285.246 313.891C285.246 290.759 269.7 276.803 247.613 276.803ZM396.269 276.803C374.051 276.803 357.302 291.033 357.302 314.558C357.302 338.083 374.051 352.313 396.269 352.313C418.487 352.313 435.236 338.083 435.236 314.558C435.236 291.033 418.487 276.803 396.269 276.803ZM558.924 276.803C536.707 276.803 520.018 291.033 520.018 314.558C520.018 338.083 536.707 352.313 558.924 352.313C581.142 352.313 597.891 338.083 597.891 314.558C597.891 291.033 581.142 276.803 558.924 276.803ZM490.202 277.167C479.093 277.167 471.78 282.519 467.597 288.923L467.597 283.942C467.597 280.501 464.808 277.712 461.368 277.712L444.859 277.712C441.419 277.712 438.63 280.501 438.63 283.942L438.63 345.174C438.63 348.615 441.419 351.404 444.859 351.404L461.368 351.404C464.808 351.404 467.597 348.615 467.597 345.174L467.597 312.316C467.597 305.258 471.556 300.983 477.96 300.983C484.234 300.983 488.263 305.258 488.263 312.316L488.263 345.174C488.263 348.615 491.052 351.404 494.492 351.404L510.94 351.404C514.381 351.404 517.17 348.615 517.17 345.174L517.17 308.68C517.17 289.599 507.192 277.167 490.202 277.167ZM607.515 277.712C604.074 277.712 601.285 280.501 601.285 283.942L601.285 345.174C601.285 348.615 604.074 351.404 607.515 351.404L624.084 351.404C627.524 351.404 630.313 348.615 630.313 345.174L630.313 283.942C630.313 280.501 627.524 277.712 624.084 277.712L607.515 277.712ZM247.613 299.529C251.926 299.529 255.855 301.886 255.855 306.983L238.583 306.983C239.498 301.886 242.777 299.529 247.613 299.529ZM396.269 301.892C401.366 301.892 405.844 305.802 405.844 314.558C405.844 323.314 401.366 327.224 396.269 327.224C391.041 327.224 386.755 323.314 386.755 314.558C386.755 305.802 391.172 301.892 396.269 301.892ZM558.924 301.892C564.021 301.892 568.499 305.802 568.499 314.558C568.499 323.314 564.021 327.224 558.924 327.224C553.697 327.224 549.41 323.314 549.41 314.558C549.41 305.802 553.827 301.892 558.924 301.892ZM673.765 302.135C679.777 302.135 684.491 306.455 684.491 314.558C684.491 322.661 679.777 326.981 673.765 326.981C667.753 326.981 663.038 322.661 663.038 314.558C663.038 306.455 667.753 302.135 673.765 302.135Z" fill="url(#LinearGradient)" fill-rule="nonzero" opacity="1" stroke="none"/>
</g>
</g>
</svg>
